<?xml version="1.0" encoding="utf-8"?>
<!-- Generator: Adobe Illustrator 23.1.0, SVG Export Plug-In . SVG Version: 6.00 Build 0)  -->
<svg version="1.1" id="Calque_1" xmlns="http://www.w3.org/2000/svg" xmlns:xlink="http://www.w3.org/1999/xlink" x="0px" y="0px"
	 viewBox="0 0 275.6 216.5" style="enable-background:new 0 0 275.6 216.5;" xml:space="preserve">
<style type="text/css">
	.st0{fill:none;}
	.st1{fill:#FFFFFF;}
</style>
<g>
	<path class="st0" d="M120.2,155.1c0.1,0,0.2-0.1,0.3-0.1C120.3,155,120.2,155,120.2,155.1z"/>
	<path class="st0" d="M119.5,155.4c0.1,0,0.2-0.1,0.2-0.1C119.6,155.4,119.6,155.4,119.5,155.4z"/>
	<path class="st0" d="M78.7,156c0.1,0.1,0.3,0.2,0.5,0.3C79.1,156.3,78.9,156.2,78.7,156z"/>
	<path class="st0" d="M122.1,154.3c0.1,0,0.2,0,0.3-0.1C122.3,154.3,122.2,154.3,122.1,154.3z"/>
	<path class="st0" d="M121.5,154.5c0.1,0,0.2-0.1,0.3-0.1C121.6,154.4,121.6,154.5,121.5,154.5z"/>
	<path class="st0" d="M120.8,154.7c0.1,0,0.2-0.1,0.3-0.1C121,154.7,120.9,154.7,120.8,154.7z"/>
	<path class="st0" d="M79.7,156.8c0.6,0.4,1.2,0.8,1.7,1.3C80.9,157.6,80.3,157.2,79.7,156.8z"/>
	<path class="st0" d="M30.2,57.1c0.2,0.1,0.4,0.2,0.6,0.4C30.6,57.3,30.4,57.2,30.2,57.1z"/>
	<path class="st0" d="M29.3,56.6c0.2,0.1,0.4,0.2,0.5,0.3C29.6,56.8,29.4,56.7,29.3,56.6z"/>
	<path class="st0" d="M31.1,57.6c0.3,0.2,0.6,0.4,0.9,0.7C31.7,58.1,31.4,57.8,31.1,57.6z"/>
	<path class="st0" d="M28.4,56.3c0.2,0.1,0.3,0.1,0.5,0.2C28.7,56.4,28.5,56.3,28.4,56.3z"/>
	<path class="st0" d="M60.9,87.1c0.3,0.6,0.7,1.2,0.9,1.8C61.5,88.3,61.2,87.7,60.9,87.1z"/>
	<path class="st0" d="M62.2,94.1c-0.1,0.3-0.2,0.7-0.3,1C62,94.8,62.1,94.4,62.2,94.1z"/>
	<path class="st0" d="M58.4,84.1c0.1,0.1,0.2,0.2,0.3,0.3C58.6,84.3,58.5,84.2,58.4,84.1z"/>
	<path class="st0" d="M129.2,155.7c0,0,0.1,0.1,0.1,0.1C129.3,155.8,129.2,155.8,129.2,155.7z"/>
	<path class="st0" d="M128.6,155.4C128.7,155.4,128.7,155.4,128.6,155.4C128.7,155.4,128.7,155.4,128.6,155.4z"/>
	<path class="st0" d="M129.8,156.2C129.9,156.2,129.9,156.2,129.8,156.2C129.9,156.2,129.9,156.2,129.8,156.2z"/>
	<path class="st0" d="M130.8,156.9C130.8,156.9,130.8,156.9,130.8,156.9C130.8,156.9,130.8,156.9,130.8,156.9z"/>
	<path class="st0" d="M131.2,157.2C131.2,157.3,131.2,157.3,131.2,157.2C131.2,157.3,131.2,157.3,131.2,157.2z"/>
	<path class="st0" d="M130.3,156.5c0,0,0.1,0.1,0.1,0.1C130.4,156.6,130.3,156.5,130.3,156.5z"/>
	<path class="st0" d="M127.9,155c0,0,0.1,0,0.1,0.1C128,155,127.9,155,127.9,155z"/>
	<path class="st0" d="M125.7,154.2c0,0,0.1,0,0.1,0C125.8,154.3,125.7,154.2,125.7,154.2z"/>
	<path class="st0" d="M127.2,154.7c0,0,0.1,0,0.1,0C127.3,154.7,127.3,154.7,127.2,154.7z"/>
	<path class="st0" d="M124,154.1C124,154.1,124,154.1,124,154.1c0,0,0.1,0,0.1,0C124.1,154.1,124,154.1,124,154.1z"/>
	<path class="st0" d="M123.3,154.1c0.1,0,0.2,0,0.3,0C123.5,154.1,123.4,154.1,123.3,154.1z"/>
	<path class="st0" d="M124.8,154.1c0.1,0,0.1,0,0.2,0C124.9,154.1,124.8,154.1,124.8,154.1z"/>
	<path class="st0" d="M126.4,154.4c0.1,0,0.1,0,0.2,0C126.5,154.5,126.5,154.4,126.4,154.4z"/>
	<path class="st0" d="M122.7,154.2c0.1,0,0.2,0,0.3,0C122.9,154.1,122.8,154.2,122.7,154.2z"/>
	<path class="st0" d="M23.6,55.9c0.1,0,0.2,0,0.3,0C23.8,55.9,23.7,55.9,23.6,55.9z"/>
	<path class="st0" d="M109,215.4c-0.4-0.1-0.8-0.2-1.2-0.3C108.2,215.2,108.6,215.3,109,215.4z"/>
	<path class="st0" d="M103.7,214.2c-0.4-0.1-0.7-0.2-1.1-0.3C103,213.9,103.4,214.1,103.7,214.2z"/>
	<path class="st0" d="M106.4,214.8c-0.4-0.1-0.8-0.2-1.1-0.3C105.6,214.6,106,214.8,106.4,214.8z"/>
	<path class="st0" d="M101.1,213.4c-0.3-0.1-0.6-0.2-1-0.3C100.4,213.1,100.7,213.3,101.1,213.4z"/>
	<path class="st0" d="M93.1,210.3c-0.2-0.1-0.4-0.2-0.7-0.3C92.7,210.1,92.9,210.2,93.1,210.3z"/>
	<path class="st0" d="M95.8,211.4c-0.2-0.1-0.5-0.2-0.7-0.3C95.3,211.2,95.5,211.3,95.8,211.4z"/>
	<path class="st0" d="M98.4,212.5c-0.3-0.1-0.6-0.2-0.9-0.3C97.8,212.2,98.1,212.3,98.4,212.5z"/>
	<path class="st0" d="M90.5,209.1c-0.2-0.1-0.3-0.2-0.5-0.3C90.2,209,90.3,209,90.5,209.1z"/>
	<path class="st0" d="M148.6,208.6c-1,0.8-2.1,1.5-3.3,2.2C146.5,210.1,147.6,209.3,148.6,208.6z"/>
	<path class="st0" d="M111.7,215.9c-0.5-0.1-0.9-0.2-1.4-0.2C110.8,215.7,111.2,215.8,111.7,215.9z"/>
	<path class="st0" d="M153,179.3c0.6,0.6,1.2,1.3,1.7,1.8C154.2,180.6,153.6,180,153,179.3z"/>
	<path class="st0" d="M119.6,216.5C119.6,216.5,119.7,216.5,119.6,216.5c-0.4,0-0.9,0-1.4,0C118.7,216.4,119.2,216.5,119.6,216.5z"
		/>
	<path class="st0" d="M117,216.4c-0.5,0-0.9-0.1-1.4-0.1C116.1,216.3,116.5,216.4,117,216.4z"/>
	<path class="st0" d="M114.3,216.2c-0.5,0-0.9-0.1-1.4-0.2C113.4,216.1,113.9,216.2,114.3,216.2z"/>
	<path class="st0" d="M131.6,157.6C131.6,157.6,131.6,157.6,131.6,157.6C131.6,157.6,131.6,157.6,131.6,157.6z"/>
	<path class="st0" d="M25.2,55.8c-0.1,0-0.1,0-0.2,0c0.1,0,0.3,0,0.4,0C25.4,55.8,25.3,55.8,25.2,55.8z"/>
	<path class="st0" d="M24.3,55.8c0.1,0,0.2,0,0.3,0C24.5,55.8,24.4,55.8,24.3,55.8z"/>
	<path class="st0" d="M23,56c0.1,0,0.2,0,0.3,0C23.2,56,23.1,56,23,56z"/>
	<path class="st0" d="M27.5,56c0.2,0,0.3,0.1,0.5,0.1C27.8,56.1,27.6,56.1,27.5,56z"/>
	<path class="st0" d="M26.6,55.9c0.1,0,0.3,0,0.5,0.1C26.9,55.9,26.8,55.9,26.6,55.9z"/>
	<path class="st0" d="M25.8,55.8c0.1,0,0.3,0,0.4,0C26.1,55.8,26,55.8,25.8,55.8z"/>
	<path class="st0" d="M21.6,56.4C21.6,56.4,21.6,56.4,21.6,56.4C21.6,56.4,21.6,56.4,21.6,56.4z"/>
	<path class="st0" d="M47.1,176.3C47.1,176.3,47.1,176.3,47.1,176.3C47.1,176.3,47.1,176.3,47.1,176.3z"/>
	<path class="st0" d="M82.7,205C82.7,205,82.7,205,82.7,205C82.7,205,82.7,205,82.7,205z"/>
	<path class="st0" d="M87.9,207.8c-0.1-0.1-0.2-0.1-0.3-0.2C87.7,207.7,87.8,207.8,87.9,207.8z"/>
	<path class="st0" d="M21.7,56.3c0,0,0.1,0,0.1,0C21.8,56.3,21.8,56.3,21.7,56.3z"/>
	<path class="st0" d="M22.1,56.2c0.1,0,0.1,0,0.2,0C22.2,56.2,22.1,56.2,22.1,56.2z"/>
	<path class="st0" d="M22.5,56.1c0.1,0,0.1,0,0.2-0.1C22.6,56.1,22.6,56.1,22.5,56.1z"/>
	<path class="st0" d="M85.3,206.5c-0.1,0-0.1-0.1-0.2-0.1C85.2,206.4,85.3,206.4,85.3,206.5z"/>
	<polygon class="st0" points="61.5,13.6 157,106 251.8,13.6 	"/>
	<path class="st0" d="M137,163.1L137,163.1c-0.2-0.2-0.4-0.4-0.6-0.6C136.6,162.7,136.8,162.9,137,163.1z"/>
	<path class="st0" d="M149.6,207.8c1-0.8,1.8-1.6,2.7-2.5C151.4,206.1,150.6,207,149.6,207.8z"/>
	<path class="st0" d="M136.4,162.5c-2.5-2.5-4.2-4.2-4.2-4.2s0,0,0,0c0,0,0,0,0,0S133.9,160,136.4,162.5z"/>
	<polygon class="st0" points="261.6,153.5 261.6,23.2 194.8,88.4 	"/>
	<path class="st0" d="M62.4,92.9c0.1-1.2-0.1-2.4-0.4-3.4C62.3,90.5,62.5,91.6,62.4,92.9z"/>
	<path class="st0" d="M89.1,163.1c-2.4-1.5-5-3.2-7.4-4.9C84.1,159.9,86.6,161.6,89.1,163.1L89.1,163.1z"/>
	<path class="st0" d="M111.2,162.2c-0.3,0.3-0.7,0.6-1,0.9h0C110.5,162.8,110.9,162.5,111.2,162.2z"/>
	<path class="st0" d="M76.9,154.6c0.5,0.4,1.1,0.9,1.7,1.4C78,155.5,77.5,155.1,76.9,154.6c-1.2-1-2.4-2.1-3.6-3.1l0,0
		C74.5,152.5,75.7,153.6,76.9,154.6z"/>
	<path class="st0" d="M131.8,157.8C131.8,157.9,131.8,157.9,131.8,157.8C131.8,157.9,131.8,157.9,131.8,157.8z"/>
	<path class="st0" d="M151,177.3c-0.2-0.2-0.4-0.4-0.6-0.6h0C150.6,176.9,150.8,177.1,151,177.3z"/>
	<path class="st0" d="M132,158.1C132,158.1,132,158.1,132,158.1C132,158.1,132,158.1,132,158.1z"/>
	<path class="st0" d="M53.6,128.3c-0.7-1.1-1.4-2.1-2-3.1v0C52.2,126.2,52.8,127.2,53.6,128.3z"/>
	<path class="st0" d="M132.1,158.2C132.1,158.2,132.2,158.2,132.1,158.2C132.2,158.2,132.1,158.2,132.1,158.2z"/>
	<path class="st0" d="M152.2,205.3c3-3.2,5.2-6.7,7.4-10.3c0,0,0.6-1.4,0.6-3.4c-0.1,2-0.6,3.4-0.6,3.4
		C157.4,198.5,155.2,202.1,152.2,205.3z"/>
	<g>
		<path class="st1" d="M254.7,0H58.5C47,0,37.6,9.2,37.6,20.4v34.9c3.3,3,8.9,8.5,13.9,13.5V23.1L118.7,88L68,137.4
			c3.1,3.6,6.3,6.9,9.6,9.9l51-49.7l23.5,22.8c2.7,2.6,7.1,2.6,9.8,0l23-22.4l66.8,65.2H145.5c4.5,4.5,9.7,9.8,13.3,13.6h95.9
			c11.5,0,20.9-9.1,20.9-20.4V20.4C275.6,9.2,266.2,0,254.7,0z M157,106L61.5,13.6h190.3L157,106z M261.6,153.5l-66.8-65.2
			l66.8-65.2V153.5z"/>
		<path class="st1" d="M157.8,184.5c-0.7-0.8-1.7-1.9-3.1-3.3c-0.5-0.6-1.1-1.2-1.7-1.8c-0.6-0.6-1.3-1.3-1.9-2
			c-0.2-0.2-0.4-0.4-0.6-0.6h0c-0.5-0.5-1-1-1.5-1.5c-0.4-0.4-0.7-0.7-1.1-1.1c-0.7-0.7-1.5-1.5-2.2-2.3c-0.7-0.8-1.5-1.5-2.2-2.3
			c-0.4-0.4-0.7-0.7-1.1-1.1c-1.1-1.1-2.1-2.2-3.1-3.2c-0.8-0.8-1.5-1.5-2.1-2.2c-0.2-0.2-0.4-0.4-0.6-0.6c-2.5-2.5-4.2-4.2-4.2-4.2
			s0,0,0,0c0,0,0,0,0,0c0,0,0,0,0,0c0,0-0.1-0.1-0.1-0.1c0,0,0,0,0,0c0,0-0.1-0.1-0.2-0.2c0,0,0,0-0.1-0.1c-0.1-0.1-0.1-0.1-0.2-0.2
			c0,0,0,0,0,0c-0.1-0.1-0.2-0.2-0.3-0.3c0,0-0.1,0-0.1-0.1c-0.1-0.1-0.2-0.2-0.3-0.3c0,0,0,0,0,0c-0.1-0.1-0.3-0.2-0.4-0.3
			c0,0-0.1-0.1-0.1-0.1c-0.1-0.1-0.3-0.2-0.4-0.3c0,0,0,0-0.1,0c-0.2-0.1-0.3-0.2-0.5-0.3c0,0-0.1-0.1-0.1-0.1
			c-0.2-0.1-0.3-0.2-0.5-0.3c0,0-0.1,0-0.1,0c-0.2-0.1-0.4-0.2-0.6-0.3c0,0-0.1,0-0.1-0.1c-0.2-0.1-0.4-0.2-0.6-0.2c0,0-0.1,0-0.1,0
			c-0.2-0.1-0.4-0.2-0.7-0.2c-0.1,0-0.1,0-0.2,0c-0.2-0.1-0.4-0.1-0.6-0.2c0,0-0.1,0-0.1,0c-0.2,0-0.5-0.1-0.7-0.1
			c-0.1,0-0.1,0-0.2,0c-0.2,0-0.4,0-0.6,0c-0.1,0-0.1,0-0.2,0c-0.1,0-0.2,0-0.3,0c-0.1,0-0.2,0-0.3,0c-0.1,0-0.2,0-0.3,0
			c-0.1,0-0.2,0-0.3,0c-0.1,0-0.2,0-0.3,0.1c-0.1,0-0.2,0-0.3,0.1c-0.1,0-0.2,0.1-0.3,0.1c-0.1,0-0.2,0.1-0.3,0.1
			c-0.1,0-0.2,0.1-0.4,0.1c-0.1,0-0.2,0.1-0.3,0.1c-0.1,0.1-0.3,0.1-0.4,0.2c-0.1,0-0.2,0.1-0.3,0.1c-0.1,0.1-0.3,0.2-0.4,0.3
			c-0.1,0-0.2,0.1-0.2,0.1c-0.2,0.1-0.4,0.3-0.7,0.5c-0.3,0.2-0.7,0.5-1,0.8c-0.7,0.6-1.5,1.2-2.3,1.8c-0.8,0.7-1.6,1.4-2.5,2.1
			c-0.6,0.5-1.2,1.1-1.9,1.6c-0.3,0.3-0.7,0.6-1,0.9h0c-0.1,0.1-0.2,0.2-0.3,0.3c-0.6,0.5-1.1,1-1.7,1.5c-0.1,0.1-0.2,0.1-0.2,0.2
			c-1.9,1.7-3.7,3.3-4.8,4.4c-0.5,0.4-0.9,0.8-1.2,1.1c0,0-0.1,0-0.3-0.1c0,0,0,0,0,0c-1.3-0.7-6.6-3.6-12.6-7.3h0
			c-2.4-1.5-5-3.2-7.4-4.9c-0.1-0.1-0.2-0.1-0.2-0.2c-0.6-0.4-1.2-0.8-1.7-1.3c-0.2-0.1-0.3-0.3-0.5-0.4c-0.2-0.1-0.3-0.2-0.5-0.3
			c0,0-0.1-0.1-0.1-0.1c-0.6-0.5-1.2-0.9-1.7-1.4c-1.2-1-2.4-2.1-3.6-3.1c-0.5-0.4-0.9-0.8-1.4-1.2c-1.6-1.5-3.1-3-4.5-4.5
			c-1.3-1.4-2.5-2.8-3.7-4.1c-0.1-0.1-0.3-0.3-0.4-0.4c-3.9-4.5-7.1-9-9.8-12.9c-0.7-1.1-1.4-2.1-2-3.1v0c-0.9-1.4-1.7-2.7-2.4-3.9
			l-3.6-6.8c0.1-0.1,0.2-0.2,0.3-0.4c0.1-0.2,0.3-0.3,0.5-0.5c0.6-0.6,1.4-1.5,2.4-2.6c0.6-0.7,1.3-1.5,2.1-2.3
			c0.2-0.3,0.5-0.5,0.7-0.8c2-2.3,4.3-4.8,6.2-7.1c1.1-1.3,2-2.5,2.8-3.6c0.3-0.4,0.6-0.9,0.8-1.3c0.2-0.3,0.3-0.6,0.4-0.9
			c0.1-0.3,0.3-0.7,0.3-1c0.1-0.4,0.2-0.8,0.2-1.2c0.1-1.2-0.1-2.4-0.4-3.4c-0.1-0.2-0.1-0.3-0.2-0.5c-0.3-0.7-0.6-1.3-0.9-1.8
			c-0.8-1.3-1.6-2.2-2.2-2.7c-0.1-0.1-0.2-0.2-0.3-0.3c-0.1-0.1-0.2-0.2-0.2-0.2s-2.8-2.8-6.7-6.6c-4.2-4.2-9.7-9.6-13.9-13.7
			c-2.5-2.4-4.5-4.3-5.6-5.3c-0.3-0.3-0.6-0.5-0.9-0.7c-0.1-0.1-0.2-0.1-0.3-0.2c-0.2-0.1-0.4-0.3-0.6-0.4c-0.1-0.1-0.2-0.1-0.4-0.2
			c-0.2-0.1-0.4-0.2-0.5-0.3c-0.1-0.1-0.3-0.1-0.4-0.2c-0.2-0.1-0.3-0.1-0.5-0.2c-0.1,0-0.3-0.1-0.4-0.1c-0.2,0-0.3-0.1-0.5-0.1
			c-0.1,0-0.3-0.1-0.4-0.1c-0.2,0-0.3-0.1-0.5-0.1c-0.1,0-0.3,0-0.4,0c-0.1,0-0.3,0-0.4,0c-0.1,0-0.2,0-0.4,0c-0.1,0-0.3,0-0.4,0
			c-0.1,0-0.3,0-0.4,0c-0.1,0-0.2,0-0.3,0c-0.1,0-0.3,0-0.4,0c-0.1,0-0.2,0-0.3,0c-0.1,0-0.2,0-0.3,0.1c-0.1,0-0.2,0-0.3,0
			c-0.1,0-0.2,0-0.3,0.1c-0.1,0-0.2,0-0.2,0.1c-0.1,0-0.2,0-0.3,0.1c-0.1,0-0.1,0-0.2,0c-0.1,0-0.1,0-0.2,0.1c0,0-0.1,0-0.1,0
			c-0.1,0-0.1,0-0.1,0.1c0,0,0,0,0,0c0,0-0.1,0-0.1,0c-1,0.6-1.9,1.2-2.9,1.9c-0.6,0.4-1.3,0.8-1.9,1.3c-0.9,0.6-1.9,1.3-2.8,2
			c-0.6,0.5-1.2,1-1.8,1.5c-0.6,0.5-1.2,1.1-1.7,1.6c-0.6,0.6-1.1,1.2-1.7,1.8c-0.8,1-1.6,2-2.3,3.1c-0.5,0.8-0.9,1.6-1.4,2.4
			c-2.9,5.5-4.8,13.2-5,24.4c0,4,0.5,8.1,1.4,12.2c0.2,0.8,0.4,1.6,0.6,2.4c0.4,1.6,0.9,3.2,1.4,4.9c0.8,2.4,1.8,4.8,2.8,7.2
			c0.7,1.6,1.5,3.2,2.3,4.8s1.7,3.2,2.6,4.7c2.3,3.9,4.8,7.8,7.5,11.6c1.1,1.5,2.2,3,3.4,4.5c1.7,2.2,3.5,4.4,5.4,6.6
			c3.1,3.6,6.3,7.1,9.6,10.4c1.3,1.3,2.6,2.7,4,3.9c2,2.2,4,4.4,6.2,6.5c0,0,0,0,0,0c10.6,10.8,22.8,21.2,35.6,28.7c0,0,0,0,0.1,0
			c0.8,0.5,1.6,0.9,2.4,1.4c0.1,0,0.1,0.1,0.2,0.1c0.8,0.4,1.5,0.8,2.3,1.2c0.1,0.1,0.2,0.1,0.3,0.2c0.7,0.4,1.4,0.7,2.1,1
			c0.2,0.1,0.3,0.2,0.5,0.3c0.6,0.3,1.3,0.6,2,0.9c0.2,0.1,0.4,0.2,0.7,0.3c0.6,0.3,1.3,0.5,1.9,0.8c0.2,0.1,0.5,0.2,0.7,0.3
			c0.6,0.2,1.2,0.5,1.8,0.7c0.3,0.1,0.6,0.2,0.9,0.3c0.6,0.2,1.1,0.4,1.7,0.6c0.3,0.1,0.6,0.2,1,0.3c0.5,0.2,1.1,0.3,1.6,0.5
			c0.4,0.1,0.7,0.2,1.1,0.3c0.5,0.1,1,0.3,1.5,0.4c0.4,0.1,0.8,0.2,1.1,0.3c0.5,0.1,0.9,0.2,1.4,0.3c0.4,0.1,0.8,0.2,1.2,0.3
			c0.4,0.1,0.9,0.1,1.3,0.2c0.5,0.1,0.9,0.2,1.4,0.2c0.4,0.1,0.8,0.1,1.2,0.2c0.5,0.1,0.9,0.1,1.4,0.2c0.4,0,0.8,0.1,1.2,0.1
			c0.5,0,0.9,0.1,1.4,0.1c0.4,0,0.8,0,1.3,0c0.5,0,0.9,0,1.4,0c12.1-0.3,20-2.5,25.6-5.7c1.2-0.7,2.3-1.4,3.3-2.2
			c0.3-0.3,0.7-0.5,1-0.8c1-0.8,1.8-1.6,2.7-2.5c3-3.2,5.2-6.7,7.4-10.3c0,0,0.6-1.4,0.6-3.4c0-1.3-0.1-2.8-0.8-4.3
			C159.2,186.4,158.6,185.4,157.8,184.5z"/>
	</g>
</g>
</svg>
